{
  "accessors": [
    {
      "bufferView": 3,
      "componentType": 5126,
      "count": 8194,
      "max": [
        33.20196533203125,
        19.755203247070313,
        44.92762756347656
      ],
      "min": [
        -33.20196533203125,
        -12.570363998413086,
        -22.870622634887695
      ],
      "type": "VEC3"
    },
    {
      "bufferView": 3,
      "byteOffset": 98328,
      "componentType": 5126,
      "count": 8194,
      "max": [
        0.9999510049819946,
        0.9996453523635864,
        0.9997707605361938
      ],
      "min": [
        -0.9999510049819946,
        -0.9995022416114807,
        -0.998934805393219
      ],
      "type": "VEC3"
    },
    {
      "bufferView": 4,
      "componentType": 5126,
      "count": 8194,
      "max": [
        0.9999268054962158,
        0.999488353729248,
        0.999348521232605,
        1.0
      ],
      "min": [
        -0.9999268054962158,
        -0.9988818764686584,
        -0.9996693730354309,
        -1.0
      ],
      "type": "VEC4"
    },
    {
      "bufferView": 2,
      "componentType": 5126,
      "count": 8194,
      "max": [
        0.9679076671600342,
        0.9970666170120239
      ],
      "min": [
        0.0029333913698792458,
        0.0029333829879760742
      ],
      "type": "VEC2"
    },
    {
      "bufferView": 1,
      "componentType": 5125,
      "count": 44556,
      "type": "SCALAR"
    },
    {
      "bufferView": 5,
      "componentType": 5126,
      "count": 49,
      "max": [
        1.0,
        0.9945257306098938,
        0.9954837560653687,
        0.0,
        0.9803746938705444,
        1.0,
        0.8032877445220947,
        0.0,
        0.6682597398757935,
        0.9926738739013672,
        1.0,
        0.0,
        28.996828079223633,
        13.641870498657227,
        29.9352970123291,
        1.0
      ],
      "min": [
        -0.8858663439750671,
        -0.9945257306098938,
        -0.9954837560653687,
        0.0,
        -0.9803746938705444,
        -0.4745423197746277,
        -0.4929402768611908,
        0.0,
        -0.6682597398757935,
        -0.5305194854736328,
        -0.9884915351867676,
        0.0,
        -28.996828079223633,
        -46.55929183959961,
        -21.577957153320313,
        1.0
      ],
      "type": "MAT4"
    },
    {
      "bufferView": 0,
      "componentType": 5123,
      "count": 8194,
      "type": "VEC4"
    },
    {
      "bufferView": 4,
      "byteOffset": 131104,
      "componentType": 5126,
      "count": 8194,
      "max": [
        1.0,
        0.49983978271484375,
        0.29028064012527466,
        0.09192174673080444
      ],
      "min": [
        0.3909761905670166,
        0.0,
        0.0,
        0.0
      ],
      "type": "VEC4"
    }
  ],
  "asset": {
    "extras": {
      "author": "DJMaesen (https://sketchfab.com/bumstrum)",
      "license": "CC-BY-NC-4.0 (http://creativecommons.org/licenses/by-nc/4.0/)",
      "source": "https://sketchfab.com/3d-models/fp-arms-8416c380544949bb9b224278819cbe6b",
      "title": "FP Arms"
    },
    "generator": "Sketchfab-15.32.0",
    "version": "2.0"
  },
  "bufferViews": [
    {
      "buffer": 0,
      "byteLength": 65552,
      "byteStride": 8,
      "name": "shortBufferViews",
      "target": 34962
    },
    {
      "buffer": 0,
      "byteLength": 178224,
      "byteOffset": 65552,
      "name": "floatBufferViews",
      "target": 34963
    },
    {
      "buffer": 0,
      "byteLength": 65552,
      "byteOffset": 243776,
      "byteStride": 8,
      "name": "floatBufferViews",
      "target": 34962
    },
    {
      "buffer": 0,
      "byteLength": 196656,
      "byteOffset": 309328,
      "byteStride": 12,
      "name": "floatBufferViews",
      "target": 34962
    },
    {
      "buffer": 0,
      "byteLength": 262208,
      "byteOffset": 505984,
      "byteStride": 16,
      "name": "floatBufferViews",
      "target": 34962
    },
    {
      "buffer": 0,
      "byteLength": 3136,
      "byteOffset": 768192,
      "name": "floatBufferViews"
    }
  ],
  "buffers": [
    {
      "byteLength": 771328,
      "uri": "scene.bin"
    }
  ],
  "images": [
    {
      "uri": "textures/arms_baseColor.png"
    },
    {
      "uri": "textures/arms_metallicRoughness.png"
    },
    {
      "uri": "textures/arms_normal.png"
    }
  ],
  "materials": [
    {
      "name": "arms",
      "normalTexture": {
        "index": 2
      },
      "occlusionTexture": {
        "index": 1
      },
      "pbrMetallicRoughness": {
        "baseColorTexture": {
          "index": 0
        },
        "metallicFactor": 0.0,
        "metallicRoughnessTexture": {
          "index": 1
        }
      }
    }
  ],
  "meshes": [
    {
      "name": "arms_arms_0",
      "primitives": [
        {
          "attributes": {
            "JOINTS_0": 6,
            "NORMAL": 1,
            "POSITION": 0,
            "TANGENT": 2,
            "TEXCOORD_0": 3,
            "TEXCOORD_1": 3,
            "WEIGHTS_0": 7
          },
          "indices": 4,
          "material": 0,
          "mode": 4
        }
      ]
    }
  ],
  "nodes": [
    {
      "children": [
        1
      ],
      "matrix": [
        1.0,
        0.0,
        0.0,
        0.0,
        0.0,
        2.220446049250313e-16,
        -1.0,
        0.0,
        0.0,
        1.0,
        2.220446049250313e-16,
        0.0,
        0.0,
        0.0,
        0.0,
        1.0
      ],
      "name": "Sketchfab_model"
    },
    {
      "children": [
        2
      ],
      "matrix": [
        0.009999999776482582,
        0.0,
        0.0,
        0.0,
        0.0,
        0.0,
        0.009999999776482582,
        0.0,
        0.0,
        -0.009999999776482582,
        0.0,
        0.0,
        0.0,
        0.0,
        0.0,
        1.0
      ],
      "name": "97e33aad6e0d4c5fb2ce0092c3d785a6.fbx"
    },
    {
      "children": [
        3
      ],
      "name": "RootNode"
    },
    {
      "children": [
        4
      ],
      "matrix": [
        1.0,
        0.0,
        0.0,
        0.0,
        0.0,
        1.0,
        0.0,
        0.0,
        0.0,
        0.0,
        1.0,
        0.0,
        0.0,
        -0.0822519063949585,
        -14.695673942565918,
        1.0
      ],
      "name": "root"
    },
    {
      "children": [
        5,
        55,
        54
      ],
      "name": "Object_4"
    },
    {
      "children": [
        6,
        30
      ],
      "name": "_rootJoint"
    },
    {
      "children": [
        7
      ],
      "name": "L_arm_01",
      "rotation": [
        0.17349566519260406,
        0.885226309299469,
        0.33253180980682373,
        -0.2751294672489166
      ],
      "translation": [
        14.936880111694336,
        17.806045532226563,
        -9.220820426940918
      ]
    },
    {
      "children": [
        8
      ],
      "name": "L_elbow_02",
      "rotation": [
        0.22998285293579102,
        -0.36103761196136475,
        0.0011690625688061118,
        0.9037469625473022
      ],
      "translation": [
        1.0658141036401503e-14,
        3.552713678800501e-15,
        -27.581693649291992
      ]
    },
    {
      "children": [
        9,
        13,
        17,
        21
      ],
      "name": "L_wrist_03",
      "rotation": [
        0.008290685713291168,
        -0.04401678964495659,
        -0.05614987015724182,
        0.997417151927948
      ],
      "translation": [
        2.842170943040401e-14,
        8.881784197001252e-15,
        -32.2292594909668
      ]
    },
    {
      "children": [
        10
      ],
      "name": "L_thumb1_04",
      "rotation": [
        0.21425119042396545,
        -0.2944282591342926,
        -0.5668254494667053,
        0.7389975190162659
      ],
      "translation": [
        3.4454903602600098,
        -0.16466602683067322,
        -2.760352611541748
      ]
    },
    {
      "children": [
        11
      ],
      "name": "L_thumb2_05",
      "rotation": [
        -0.1789398491382599,
        -0.00833993311971426,
        0.10389640182256699,
        0.9783233404159546
      ],
      "translation": [
        -1.2434497875801753e-14,
        -3.552713678800501e-15,
        -6.466928482055664
      ]
    },
    {
      "children": [
        12
      ],
      "name": "L_thumb3_06",
      "rotation": [
        -0.1248781755566597,
        -0.009843792766332626,
        -0.0012390280608087778,
        0.99212247133255
      ],
      "translation": [
        3.552713678800501e-15,
        -1.0658141036401503e-14,
        -2.937694549560547
      ]
    },
    {
      "name": "L_thumb4_07",
      "rotation": [
        -8.326672684688674e-17,
        -5.273559366969494e-16,
        -9.020562075079397e-17,
        1.0
      ],
      "translation": [
        2.1316282072803006e-14,
        3.552713678800501e-15,
        -3.8529579639434814
      ]
    },
    {
      "children": [
        14
      ],
      "name": "L_point1_08",
      "rotation": [
        -0.0773172378540039,
        -0.06718647480010986,
        0.2728767991065979,
        0.9565805196762085
      ],
      "translation": [
        2.9700303077697754,
        3.335193395614624,
        -15.058759689331055
      ]
    },
    {
      "children": [
        15
      ],
      "name": "L_point2_09",
      "rotation": [
        -0.16224010288715363,
        -0.010049303993582726,
        -0.001652378705330193,
        0.9866988658905029
      ],
      "translation": [
        0.0,
        -1.4210854715202004e-14,
        -2.9854748249053955
      ]
    },
    {
      "children": [
        16
      ],
      "name": "L_point3_010",
      "rotation": [
        -0.25364750623703003,
        0.013499297201633453,
        0.0035401955246925354,
        0.9671960473060608
      ],
      "translation": [
        -1.7763568394002505e-14,
        1.4210854715202004e-14,
        -2.769235849380493
      ]
    },
    {
      "name": "L_point4_011",
      "rotation": [
        -8.049116928532385e-16,
        6.245004513516506e-17,
        1.5265566588595902e-16,
        1.0
      ],
      "translation": [
        0.0,
        -2.842170943040401e-14,
        -2.8810343742370605
      ]
    },
    {
      "children": [
        18
      ],
      "name": "L_middle1_012",
      "rotation": [
        -0.1486714482307434,
        -0.032810427248477936,
        0.30573055148124695,
        0.9398665428161621
      ],
      "translation": [
        -0.4692178964614868,
        1.9400255680084229,
        -14.716330528259277
      ]
    },
    {
      "children": [
        19
      ],
      "name": "L_middle2_013",
      "rotation": [
        -0.17920637130737305,
        0.0036096745170652866,
        0.0006575254374183714,
        0.9838047623634338
      ],
      "translation": [
        -1.7763568394002505e-15,
        0.0,
        -3.8937933444976807
      ]
    },
    {
      "children": [
        20
      ],
      "name": "L_middle3_00",
      "rotation": [
        -0.19769640266895294,
        -0.02234669215977192,
        -0.004508029203861952,
        0.9799982905387878
      ],
      "translation": [
        -1.7763568394002505e-15,
        7.105427357601002e-15,
        -2.9138343334198
      ]
    },
    {
      "name": "L_middle4_014",
      "rotation": [
        1.942890293094024e-15,
        -7.337880303381894e-16,
        6.938893903907228e-18,
        1.0
      ],
      "translation": [
        7.105427357601002e-15,
        -7.105427357601002e-15,
        -3.082446336746216
      ]
    },
    {
      "children": [
        22,
        26
      ],
      "name": "L_palm_015",
      "rotation": [
        -0.015732603147625923,
        0.03846713900566101,
        0.39326876401901245,
        0.9184837937355042
      ],
      "translation": [
        -3.053140640258789,
        -2.3819668292999268,
        -8.817001342773438
      ]
    },
    {
      "children": [
        23
      ],
      "name": "L_ring1_016",
      "rotation": [
        -0.17239201068878174,
        0.05993271246552467,
        0.0038820169866085052,
        0.9831957817077637
      ],
      "translation": [
        1.977097511291504,
        0.7322624325752258,
        -5.207295894622803
      ]
    },
    {
      "children": [
        24
      ],
      "name": "L_ring2_017",
      "rotation": [
        -0.2783122658729553,
        0.01833648793399334,
        0.0053142402321100235,
        0.9603009223937988
      ],
      "translation": [
        1.7763568394002505e-15,
        -7.105427357601002e-15,
        -3.4838898181915283
      ]
    },
    {
      "children": [
        25
      ],
      "name": "L_ring3_018",
      "rotation": [
        -0.3026910722255707,
        0.0012909378856420517,
        0.0004099888901691884,
        0.9530877470970154
      ],
      "translation": [
        -1.687538997430238e-14,
        4.263256414560601e-14,
        -2.4581780433654785
      ]
    },
    {
      "name": "L_ring4_019",
      "rotation": [
        -3.039235529911366e-15,
        -2.7755575615628914e-16,
        1.3877787807814457e-16,
        1.0
      ],
      "translation": [
        1.7763568394002505e-15,
        -1.4210854715202004e-14,
        -2.747446060180664
      ]
    },
    {
      "children": [
        27
      ],
      "name": "L_pink1_020",
      "rotation": [
        -0.22167080640792847,
        0.1314426213502884,
        0.09668807685375214,
        0.9613720774650574
      ],
      "translation": [
        -1.1794179677963257,
        -0.13641871511936188,
        -4.382260799407959
      ]
    },
    {
      "children": [
        28
      ],
      "name": "L_pink2_021",
      "rotation": [
        -0.2587810456752777,
        -0.005971718113869429,
        -0.0015998979797586799,
        0.9659162163734436
      ],
      "translation": [
        7.105427357601002e-15,
        2.842170943040401e-14,
        -2.4711475372314453
      ]
    },
    {
      "children": [
        29
      ],
      "name": "L_pink3_022",
      "rotation": [
        -0.18084357678890228,
        -0.006280364003032446,
        -0.0011548283509910107,
        0.9834911227226257
      ],
      "translation": [
        1.2434497875801753e-14,
        -1.4210854715202004e-14,
        -2.1065194606781006
      ]
    },
    {
      "name": "L_pink4_023",
      "rotation": [
        -2.0747292772682613e-15,
        2.779027008514845e-15,
        -8.326672684688674e-17,
        1.0
      ],
      "translation": [
        -2.3092638912203256e-14,
        -2.1316282072803006e-14,
        -2.14249849319458
      ]
    },
    {
      "children": [
        31
      ],
      "name": "R_arm_024",
      "rotation": [
        -0.17517872154712677,
        0.8854841589927673,
        0.32958829402923584,
        0.27677029371261597
      ],
      "translation": [
        -14.936880111694336,
        17.806045532226563,
        -9.220820426940918
      ]
    },
    {
      "children": [
        32
      ],
      "name": "R_elbow_025",
      "rotation": [
        0.24569831788539886,
        0.3626047670841217,
        0.024313613772392273,
        0.8986428380012512
      ],
      "translation": [
        3.27714744230434e-09,
        2.2762780815810402e-07,
        -27.581693649291992
      ]
    },
    {
      "children": [
        33,
        37,
        41,
        45
      ],
      "name": "R_wrist_026",
      "rotation": [
        0.0264009740203619,
        0.015351797454059124,
        0.06816796213388443,
        0.9972063302993774
      ],
      "translation": [
        -7.689974523827914e-08,
        2.4588993596807995e-07,
        -32.2292594909668
      ]
    },
    {
      "children": [
        34
      ],
      "name": "R_thumb1_027",
      "rotation": [
        0.23688581585884094,
        0.29000261425971985,
        0.393638551235199,
        0.8395429253578186
      ],
      "translation": [
        -3.4454903602600098,
        -0.1646660566329956,
        -2.760352611541748
      ]
    },
    {
      "children": [
        35
      ],
      "name": "R_thumb2_028",
      "rotation": [
        -0.16057725250720978,
        0.02817913144826889,
        0.004586337134242058,
        0.9866102933883667
      ],
      "translation": [
        7.105427357601002e-15,
        -7.105427357601002e-15,
        -6.466928482055664
      ]
    },
    {
      "children": [
        36
      ],
      "name": "R_thumb3_029",
      "rotation": [
        -0.18950636684894562,
        0.009741661138832569,
        0.0018802722916007042,
        0.9818294644355774
      ],
      "translation": [
        1.3122289033162815e-08,
        2.3657023007217504e-09,
        -2.937694549560547
      ]
    },
    {
      "name": "R_thumb4_030",
      "rotation": [
        -1.3702326773223916e-10,
        2.5695494620947557e-09,
        2.744384102125973e-16,
        1.0
      ],
      "translation": [
        -1.9800747708131894e-08,
        -1.0558913743352605e-09,
        -3.8529579639434814
      ]
    },
    {
      "children": [
        38
      ],
      "name": "R_point1_031",
      "rotation": [
        -0.0773172378540039,
        0.06718647480010986,
        -0.2728767991065979,
        0.9565805196762085
      ],
      "translation": [
        -2.9700303077697754,
        3.335193395614624,
        -15.058759689331055
      ]
    },
    {
      "children": [
        39
      ],
      "name": "R_point2_032",
      "rotation": [
        -0.16224010288715363,
        0.010049303993582726,
        0.001652378705330193,
        0.9866988658905029
      ],
      "translation": [
        -3.552713678800501e-15,
        -7.105427357601002e-15,
        -2.9854748249053955
      ]
    },
    {
      "children": [
        40
      ],
      "name": "R_point3_033",
      "rotation": [
        -0.25364750623703003,
        -0.013499297201633453,
        -0.0035401955246925354,
        0.9671960473060608
      ],
      "translation": [
        1.4210854715202004e-14,
        2.842170943040401e-14,
        -2.769235849380493
      ]
    },
    {
      "name": "R_point4_034",
      "rotation": [
        -8.049116928532385e-16,
        -4.0245584642661925e-16,
        2.7755575615628914e-17,
        1.0
      ],
      "translation": [
        0.0,
        -7.105427357601002e-15,
        -2.8810343742370605
      ]
    },
    {
      "children": [
        42
      ],
      "name": "R_middle1_035",
      "rotation": [
        -0.1486714482307434,
        0.032810427248477936,
        -0.30573052167892456,
        0.9398665428161621
      ],
      "translation": [
        0.4692178964614868,
        1.9400255680084229,
        -14.716330528259277
      ]
    },
    {
      "children": [
        43
      ],
      "name": "R_middle2_036",
      "rotation": [
        -0.22095412015914917,
        -0.0035783867351710796,
        -0.0008107019821181893,
        0.9752774238586426
      ],
      "translation": [
        -7.105427357601002e-15,
        7.105427357601002e-15,
        -3.8937933444976807
      ]
    },
    {
      "children": [
        44
      ],
      "name": "R_middle3_037",
      "rotation": [
        -0.30879056453704834,
        0.021682189777493477,
        0.007041295059025288,
        0.9508569240570068
      ],
      "translation": [
        0.0,
        0.0,
        -2.9138343334198
      ]
    },
    {
      "name": "R_middle4_038",
      "rotation": [
        -6.508182881503899e-11,
        8.380459104451177e-10,
        5.454156248066463e-20,
        1.0
      ],
      "translation": [
        -5.166459260408374e-09,
        -4.012576937384438e-10,
        -3.082446336746216
      ]
    },
    {
      "children": [
        46,
        50
      ],
      "name": "R_palm_039",
      "rotation": [
        -0.015732603147625923,
        -0.03846713900566101,
        -0.39326876401901245,
        0.9184837937355042
      ],
      "translation": [
        3.053140640258789,
        -2.3819665908813477,
        -8.817001342773438
      ]
    },
    {
      "children": [
        47
      ],
      "name": "R_ring1_040",
      "rotation": [
        -0.17239201068878174,
        -0.05993271246552467,
        -0.0038820169866085052,
        0.9831957817077637
      ],
      "translation": [
        -1.977097511291504,
        0.7322624325752258,
        -5.207295894622803
      ]
    },
    {
      "children": [
        48
      ],
      "name": "R_ring2_041",
      "rotation": [
        -0.2783122658729553,
        -0.01833648793399334,
        -0.0053142402321100235,
        0.9603009223937988
      ],
      "translation": [
        -3.197442310920451e-14,
        -1.4210854715202004e-14,
        -3.4838898181915283
      ]
    },
    {
      "children": [
        49
      ],
      "name": "R_ring3_042",
      "rotation": [
        -0.3026910722255707,
        -0.0012909378856420517,
        -0.0004099888901691884,
        0.9530877470970154
      ],
      "translation": [
        3.552713678800501e-15,
        2.1316282072803006e-14,
        -2.4581780433654785
      ]
    },
    {
      "name": "R_ring4_043",
      "rotation": [
        -3.112093915902392e-15,
        6.665674956440881e-16,
        -1.3877787807814457e-17,
        1.0
      ],
      "translation": [
        3.552713678800501e-15,
        -1.4210854715202004e-14,
        -2.747446060180664
      ]
    },
    {
      "children": [
        51
      ],
      "name": "R_pink1_044",
      "rotation": [
        -0.22167080640792847,
        -0.1314426213502884,
        -0.09668807685375214,
        0.9613720774650574
      ],
      "translation": [
        1.1794179677963257,
        -0.13641871511936188,
        -4.382260799407959
      ]
    },
    {
      "children": [
        52
      ],
      "name": "R_pink2_045",
      "rotation": [
        -0.2587810456752777,
        0.005971718113869429,
        0.0015998979797586799,
        0.9659162163734436
      ],
      "translation": [
        1.7763568394002505e-14,
        2.842170943040401e-14,
        -2.4711475372314453
      ]
    },
    {
      "children": [
        53
      ],
      "name": "R_pink3_046",
      "rotation": [
        -0.18084357678890228,
        0.0062803649343550205,
        0.0011548210168257356,
        0.9834911227226257
      ],
      "translation": [
        -7.105427357601002e-15,
        -2.842170943040401e-14,
        -2.1065194606781006
      ]
    },
    {
      "name": "R_pink4_047",
      "rotation": [
        9.514967980184252e-11,
        -2.6501862926409103e-09,
        -8.301456249151118e-17,
        1.0
      ],
      "translation": [
        1.1356048545962949e-08,
        4.077023163517879e-10,
        -2.14249849319458
      ]
    },
    {
      "matrix": [
        1.0,
        5.551115123125783e-17,
        2.7755575615628914e-17,
        0.0,
        -5.551115123125783e-17,
        1.0,
        0.0,
        0.0,
        -2.775557561562891e-17,
        -1.5407439555097885e-33,
        0.9999999999999999,
        0.0,
        1.7763568394002505e-15,
        -3.552713678800501e-15,
        -3.552713678800501e-15,
        1.0
      ],
      "name": "Object_54"
    },
    {
      "mesh": 0,
      "name": "Object_55",
      "skin": 0
    }
  ],
  "samplers": [
    {
      "magFilter": 9729,
      "minFilter": 9987,
      "wrapS": 10497,
      "wrapT": 10497
    }
  ],
  "scene": 0,
  "scenes": [
    {
      "name": "Sketchfab_Scene",
      "nodes": [
        0
      ]
    }
  ],
  "skins": [
    {
      "inverseBindMatrices": 5,
      "joints": [
        5,
        6,
        7,
        8,
        9,
        10,
        11,
        12,
        13,
        14,
        15,
        16,
        17,
        18,
        19,
        20,
        21,
        22,
        23,
        24,
        25,
        26,
        27,
        28,
        29,
        30,
        31,
        32,
        33,
        34,
        35,
        36,
        37,
        38,
        39,
        40,
        41,
        42,
        43,
        44,
        45,
        46,
        47,
        48,
        49,
        50,
        51,
        52,
        53
      ],
      "skeleton": 5
    }
  ],
  "textures": [
    {
      "sampler": 0,
      "source": 0
    },
    {
      "sampler": 0,
      "source": 1
    },
    {
      "sampler": 0,
      "source": 2
    }
  ]
}
